<?xml version="1.0" encoding="UTF-8" standalone="no"?>
<!-- Generator: Adobe Illustrator 16.0.0, SVG Export Plug-In . SVG Version: 6.00 Build 0)  -->

<svg
   xmlns:dc="http://purl.org/dc/elements/1.1/"
   xmlns:cc="http://creativecommons.org/ns#"
   xmlns:rdf="http://www.w3.org/1999/02/22-rdf-syntax-ns#"
   xmlns:svg="http://www.w3.org/2000/svg"
   xmlns="http://www.w3.org/2000/svg"
   xmlns:sodipodi="http://sodipodi.sourceforge.net/DTD/sodipodi-0.dtd"
   xmlns:inkscape="http://www.inkscape.org/namespaces/inkscape"
   version="1.1"
   id="Layer_1"
   x="0px"
   y="0px"
   width="156.02437"
   height="70"
   viewBox="0 0 156.02437 70"
   enable-background="new 0 0 492.623 231.967"
   xml:space="preserve"
   inkscape:version="0.48.3.1 r9886"
   sodipodi:docname="JW_logo_scalable.svg"><metadata
   id="metadata3097"><rdf:RDF><cc:Work
       rdf:about=""><dc:format>image/svg+xml</dc:format><dc:type
         rdf:resource="http://purl.org/dc/dcmitype/StillImage" /><dc:title></dc:title></cc:Work></rdf:RDF></metadata><defs
   id="defs3095" /><sodipodi:namedview
   pagecolor="#ffffff"
   bordercolor="#666666"
   borderopacity="1"
   objecttolerance="10"
   gridtolerance="10"
   guidetolerance="10"
   inkscape:pageopacity="0"
   inkscape:pageshadow="2"
   inkscape:window-width="1313"
   inkscape:window-height="744"
   id="namedview3093"
   showgrid="false"
   fit-margin-top="0"
   fit-margin-left="0"
   fit-margin-right="0"
   fit-margin-bottom="0"
   inkscape:zoom="3.4506808"
   inkscape:cx="132.5395"
   inkscape:cy="27.771244"
   inkscape:window-x="53"
   inkscape:window-y="24"
   inkscape:window-maximized="1"
   inkscape:current-layer="Layer_1" />
<g
   id="g3065"
   transform="matrix(0.32646057,0,0,0.32646057,-2.5431278,-2.8193169)">
	<g
   id="g3067">
		<path
   d="m 169.972,151.094 c 0.624,0.105 0.935,0.416 0.935,0.934 -0.727,1.453 -1.089,3.525 -1.089,6.217 v 1.865 c 0,3.006 2.536,10.881 7.615,23.625 4.042,11.4 6.371,17.408 6.995,18.031 0.208,0.205 0.52,0.312 0.934,0.312 h 0.465 c 0.726,0 6.271,-12.904 16.627,-38.703 2.18,-5.697 3.786,-8.551 4.82,-8.551 0.312,-0.207 0.523,-0.311 0.624,-0.311 1.864,0 4.146,4.406 6.839,13.211 6.941,18.029 11.19,29.377 12.744,34.041 l 1.087,0.312 c 0.832,-0.107 3.316,-5.443 7.459,-16.014 6.427,-14.191 9.638,-22.43 9.638,-24.711 v -0.311 c 0,-0.727 -1.867,-3.111 -5.595,-7.15 v -0.777 l 1.243,-0.158 h 18.654 c 1.969,0 3.781,0.158 5.436,0.469 v 0.467 c -0.725,0.725 -3.262,2.176 -7.613,4.352 -4.254,3.834 -6.684,7.148 -7.307,9.947 -15.443,35.646 -23.414,53.883 -23.934,54.709 h -0.312 c -4.763,-0.928 -7.148,-1.967 -7.148,-3.107 -9.64,-24.766 -14.817,-37.559 -15.543,-38.391 l -0.47,-0.152 h -0.465 c -1.138,0 -2.433,2.227 -3.886,6.682 l -15.539,35.125 h -0.156 c -4.664,-1.139 -6.995,-2.07 -6.995,-2.795 L 154.118,163.84 c -1.761,-3.938 -4.404,-7.719 -7.926,-11.348 v -0.465 c 0.519,-0.309 0.986,-0.467 1.4,-0.467 h 2.95 c 7.979,0.001 14.455,-0.156 19.43,-0.466 z"
   id="path3069"
   inkscape:connector-curvature="0"
   style="fill:#545052" />
		<path
   d="m 292.292,153.115 h 2.797 c 8.598,0 13.684,3.574 15.234,10.725 0.514,2.176 0.773,4.715 0.773,7.615 v 32.174 c 0,8.809 1.297,14.043 3.891,15.697 0,0.314 1.396,1.4 4.193,3.266 v 0.309 c -0.83,0.105 -1.297,0.156 -1.396,0.156 -11.506,0 -18.242,-3.367 -20.207,-10.104 0,-0.932 -0.367,-1.604 -1.088,-2.02 h -0.309 c -0.729,0 -2.797,1.812 -6.219,5.439 -5.082,3.42 -9.947,5.129 -14.609,5.129 -6.324,0 -11.096,-3.156 -14.301,-9.48 -0.621,-2.484 -0.988,-4.4 -1.092,-5.752 0,-6.836 4.297,-12.688 12.904,-17.562 7.768,-3.416 13.885,-5.285 18.34,-5.596 3.625,-0.721 5.438,-1.861 5.438,-3.42 v -5.439 c 0,-8.291 -1.502,-12.795 -4.506,-13.52 -1.035,-0.623 -2.174,-0.934 -3.42,-0.934 h -1.088 c -6.838,0 -12.178,3.473 -16.006,10.414 -1.764,0.83 -3.01,1.242 -3.73,1.242 -2.387,0 -4.096,-1.811 -5.139,-5.439 0,-4.352 7,-8.338 20.99,-11.967 2.591,-0.622 5.443,-0.933 8.55,-0.933 z m -17.253,50.047 c 0,4.352 1.656,7.148 4.977,8.391 0.52,0.312 1.084,0.469 1.711,0.469 h 1.396 c 3.83,0 8.338,-2.279 13.52,-6.838 v -17.562 h -0.152 c -14.302,1.763 -21.452,6.94 -21.452,15.54 z"
   id="path3071"
   inkscape:connector-curvature="0"
   style="fill:#545052" />
		<path
   d="m 348.089,112.395 h 0.156 v 0.152 c -0.727,4.769 -1.088,9.537 -1.088,14.298 v 82.844 c 0,4.148 2.74,8.344 8.234,12.592 v 0.619 l -1.396,0.156 h -28.6 c -1.863,0 -3.418,-0.518 -4.664,-1.555 0,-0.516 2.336,-1.5 6.994,-2.949 2.9,-2.18 4.354,-4.406 4.354,-6.688 v -70.252 c 0,-13.779 1.557,-21.76 4.664,-23.936 2.383,-2.273 6.161,-4.039 11.346,-5.281 z"
   id="path3073"
   inkscape:connector-curvature="0"
   style="fill:#545052" />
		<path
   d="m 381.193,110.528 h 0.314 v 0.312 c -0.932,4.041 -1.404,10.414 -1.404,19.115 v 48.338 c 0,0.209 0.312,0.52 0.934,0.936 h 1.244 c 1.553,0 8.029,-5.441 19.43,-16.32 0.621,-0.83 0.932,-1.658 0.932,-2.488 V 159.8 c 0,-1.242 -1.92,-2.795 -5.748,-4.662 l -0.777,-0.936 v -0.152 c 0,-0.518 0.777,-0.934 2.33,-1.246 17.816,0.312 26.734,0.777 26.734,1.398 v 0.158 c -0.104,0.621 -3.006,2.125 -8.703,4.506 -2.699,1.451 -8.863,6.582 -18.496,15.387 -1.764,1.039 -2.646,2.385 -2.646,4.041 0,1.455 2.744,5.184 8.238,11.189 8.498,10.572 15.75,18.709 21.764,24.404 2.586,2.174 5.484,4.043 8.703,5.598 v 0.156 c -0.516,0.309 -0.984,0.461 -1.406,0.461 h -23.615 c -0.936,0 -1.66,-1.084 -2.18,-3.258 -0.934,-2.902 -8.701,-12.953 -23.314,-30.156 -0.932,-0.414 -1.553,-0.623 -1.865,-0.623 h -0.623 c -0.207,0 -0.52,0.312 -0.934,0.934 v 7.77 c 0,3.73 -0.055,9.02 -0.152,15.857 -1.24,4.039 -2.9,6.787 -4.977,8.236 -3.416,2.797 -9.064,4.195 -16.939,4.195 l -1.088,-0.156 v -0.309 c 4.766,-3.107 7.15,-6.164 7.15,-9.17 0.41,-1.969 0.783,-5.441 1.086,-10.416 0,-0.928 -0.053,-3.727 -0.15,-8.391 0.098,-31.188 0.15,-52.068 0.15,-62.639 0,-9.531 2.592,-15.697 7.773,-18.496 2.176,-1.14 4.917,-2.12 8.235,-2.952 z"
   id="path3075"
   inkscape:connector-curvature="0"
   style="fill:#545052" />
		<path
   d="m 485.712,81.446 c 0.139,9.492 -2.539,18.793 -7.273,26.254 0,0 -20.229,22.884 -25.451,35.054 -5.193,12.193 -12.721,48.285 -12.721,48.285 0,0 -8.59,-35.955 -14.156,-47.986 -5.564,-12.01 -26.463,-34.406 -26.463,-34.406 -2.586,-3.855 -4.639,-8.152 -6.006,-12.77 0.256,0.021 0.512,0.021 0.766,0.021 1.637,0 3.184,-0.066 4.594,-0.207 7.896,-0.807 15.447,-3.625 21.801,-8.129 0.785,-0.531 1.59,-1.131 2.422,-1.822 l 0.557,-0.439 c 11.752,-9.838 17.848,-24.779 16.303,-39.998 -0.371,-3.67 -1.158,-7.201 -2.332,-10.551 h 0.297 c 25.932,-0.369 47.268,20.756 47.662,46.694 z"
   id="path3077"
   inkscape:connector-curvature="0"
   style="fill:#545052" />
		<path
   d="m 421.308,81.329 -0.67,0.553 c -0.854,0.717 -1.639,1.34 -2.447,1.873 -5.748,4.086 -12.562,6.627 -19.652,7.342 -0.486,0.047 -0.99,0.092 -1.523,0.115 -0.76,0.047 -1.523,0.07 -2.355,0.07 h -0.252 c -0.625,0 -1.273,-0.023 -1.92,-0.045 -6.096,-0.213 -12.561,-1.432 -16.926,-3.258 l -1.221,-0.506 -1.064,0.783 c -3.67,2.748 -5.84,4.135 -10.689,6.443 -5.867,2.768 -11.756,4.178 -17.438,4.178 h -0.783 c 14.412,-7.09 12.471,-19.58 9.328,-39.947 l -0.438,-2.84 c -2.426,-15.934 4.549,-31.73 17.85,-40.322 0.23,-0.16 0.463,-0.295 0.809,-0.482 5.471,-3.604 11.615,-5.75 18.24,-6.418 1.41,-0.162 2.842,-0.232 4.252,-0.232 17.502,0 32.559,10.834 38.537,26.463 0.279,0.672 0.51,1.361 0.742,2.057 0.252,0.76 0.459,1.521 0.668,2.311 0.529,2.051 0.922,4.154 1.131,6.324 1.384,13.463 -3.902,26.694 -14.179,35.538 z"
   id="path3079"
   inkscape:connector-curvature="0"
   style="fill:#f16725" />
	</g>
	<path
   d="m 24.474,69.25 c 0.28,-7.443 -4.002,-10.609 -12.843,-9.49 v -3.98 h 17.731 v 82.367 C 29.266,151.781 22.079,158.6 7.79,158.6 v -3.91 c 11.03,-0.93 16.593,-7.398 16.684,-19.404 V 69.25 z"
   id="path3081"
   inkscape:connector-curvature="0"
   style="fill:#545052" />
	<path
   d="m 104.894,136.289 0.05,0.041 1.39,-0.01 c -0.5,0 -0.98,-0.009 -1.44,-0.031 z"
   id="path3083"
   inkscape:connector-curvature="0"
   style="fill:#545052" />
	<path
   d="M 171.434,127.75 V 92.49 c 0.28,-11.44 -1.46,-19.47 -5.23,-24.08 -3.77,-4.61 -9.06,-7.34 -15.88,-8.2 -6.82,-0.859 -13.23,0.141 -19.23,3 -6.01,2.86 -10.38,7.99 -13.12,15.391 V 61.85 h -16.76 v 3.42 c 8.19,-0.7 12.33,1 12.43,5.1 v 57.24 c 0,1.311 -0.43,2.391 -1.29,3.25 -6.72,2.02 -10.25,0.01 -10.62,-6.049 l 0.14,-46 c -0.47,-7.631 -4.75,-12.95 -12.85,-15.95 -8.09,-3 -16.71,-3.74 -25.83,-2.23 -9.12,1.51 -15.45,4.25 -19.02,8.2 -3.56,3.96 -4.33,6.43 -2.34,7.43 2.01,1.011 4.33,-0.279 6.99,-3.83 2.65,-3.56 6.54,-5.869 11.65,-6.909 5.12,-1.051 11.32,-1.32 18.6,-0.811 7.29,0.51 12.48,3.38 15.57,8.59 3.1,5.21 2.85,9.41 -0.73,12.601 -3.58,3.18 -10.97,4.51 -22.16,3.979 -11.2,-0.54 -19.53,0.891 -24.99,4.29 -5.47,3.4 -8.73,8.62 -9.77,15.67 -1.05,7.049 0.68,13.311 5.2,18.78 4.51,5.461 12.11,8.441 22.78,8.93 10.69,0.49 20.98,-2.449 30.9,-8.83 l 0.13,-0.209 c 0,5.629 2.8,7.529 8.89,7.779 0.46,0.021 0.94,0.031 1.44,0.031 l 0.95,-0.01 23.53,-0.191 v -2.859 c -8.47,0.18 -12.71,-1.75 -12.71,-5.791 V 94.03 c -0.27,-6.19 1.59,-12.13 5.59,-17.84 4,-5.7 8.48,-9.19 13.44,-10.471 4.95,-1.279 9.8,-1.439 14.55,-0.479 4.75,0.95 8.57,3.63 11.48,8.02 2.91,4.4 4.18,11.21 3.81,20.42 v 33.93 c -0.1,4.041 -4.24,5.93 -12.43,5.65 v 2.859 h 29.88 v -2.859 c -8.47,0.179 -12.8,-1.651 -12.99,-5.51 z m -75.01,-8.24 c -3.54,6.42 -10.54,10.43 -21.01,12.039 -10.47,1.611 -18.71,0.74 -24.71,-2.58 -6,-3.33 -8.77,-9.02 -8.3,-17.069 0.46,-8.05 4.49,-13.011 12.07,-14.87 7.58,-1.86 15.9,-2.7 24.95,-2.51 9.05,0.189 14.72,-1.141 17,-3.98 v 28.97 z"
   id="path3085"
   inkscape:connector-curvature="0"
   style="fill:#545052" />
	<path
   d="m 210.538,137.656 c -7.887,-0.467 -15.031,-3.643 -21.428,-9.531 -6.398,-5.885 -9.809,-14.679 -10.229,-26.382 -0.417,-11.705 2.711,-21.521 9.39,-29.457 6.679,-7.936 15.239,-12.018 25.688,-12.25 10.449,-0.232 18.882,2.57 25.304,8.41 6.421,5.842 9.792,14.602 10.12,26.281 v 6.562 h -64.844 c -0.468,10.607 2.988,18.904 10.367,24.882 7.373,5.98 16.844,8.004 28.408,6.074 11.562,-1.93 18.274,-8.225 20.138,-18.88 h 5.373 c -0.976,5.349 -3.119,9.968 -6.421,13.855 -3.302,3.887 -7.466,6.711 -12.491,8.479 -5.028,1.768 -11.488,2.42 -19.375,1.957 z M 200.419,68.549 c -9.426,4.889 -14.719,14.055 -15.881,27.504 h 59.89 c 0.371,-14.006 -4.515,-23.314 -14.659,-27.92 -10.143,-4.609 -19.928,-4.468 -29.35,0.416 z"
   id="path3087"
   inkscape:connector-curvature="0"
   style="fill:#545052" />
	<path
   d="m 260.572,47.069 c -2.559,1.908 -5.457,2.119 -8.689,0.629 -3.234,-1.488 -4.898,-4.049 -4.992,-7.68 0,-2.559 0.896,-4.77 2.689,-6.633 1.789,-1.861 3.986,-2.791 6.594,-2.791 2.467,0 4.652,0.838 6.562,2.512 1.908,1.676 3.096,4.342 3.561,7.994 0.465,3.654 -0.348,7.703 -2.443,12.146 -2.094,4.443 -5.469,8.225 -10.123,11.344 -1.162,0.51 -1.908,0.312 -2.234,-0.596 -0.324,-0.906 0.326,-1.85 1.957,-2.826 2.279,-1.814 4.035,-4.199 5.27,-7.154 1.231,-2.955 1.848,-5.271 1.848,-6.945 z"
   id="path3089"
   inkscape:connector-curvature="0"
   style="fill:#545052" />
	<path
   d="m 319.087,60.735 v 18.914 h -2.443 c -0.557,-3.91 -1.631,-6.723 -3.213,-8.447 -1.582,-1.719 -4.186,-3.453 -7.818,-5.197 -3.627,-1.746 -8.723,-2.432 -15.285,-2.061 -6.561,0.373 -11.541,2.422 -14.939,6.143 -3.396,3.723 -4.014,8.365 -1.848,13.926 2.164,5.561 8.342,9.107 18.531,10.645 10.191,1.535 17.789,3.516 22.791,5.934 5.004,2.422 7.959,6.678 8.863,12.775 0.91,6.095 -0.615,11.527 -4.57,16.296 -3.955,4.771 -10.705,7.457 -20.242,8.062 -9.725,0 -17.182,-2.838 -22.371,-8.516 -5.189,-5.676 -7.785,-4.514 -7.785,3.49 h -2.443 c 0.65,-10.703 0.65,-21.429 0,-32.177 h 2.725 c -0.375,8.561 1.871,15.658 6.736,21.289 4.861,5.631 10.004,9.062 15.426,10.295 5.42,1.234 11.227,0.756 17.414,-1.432 6.189,-2.188 9.553,-6.467 10.086,-12.844 0.535,-6.373 -1.918,-10.689 -7.363,-12.947 -5.445,-2.256 -11.191,-3.779 -17.24,-4.572 -6.051,-0.791 -11.576,-2.383 -16.578,-4.781 -5.004,-2.396 -8.168,-6.479 -9.494,-12.25 -1.324,-5.77 -0.328,-10.867 3.002,-15.287 3.326,-4.42 7.688,-7.037 13.088,-7.854 5.398,-0.814 10.191,-1 14.379,-0.557 4.189,0.441 8.238,1.709 12.145,3.801 3.912,2.096 5.912,1.098 6.006,-3 h 1.467"
   id="path3091"
   inkscape:connector-curvature="0"
   style="fill:#545052" />
</g>
</svg>