<?xml version="1.0" encoding="utf-8"?>
<!-- Generator: Adobe Illustrator 16.2.0, SVG Export Plug-In . SVG Version: 6.00 Build 0)  -->
<!DOCTYPE svg PUBLIC "-//W3C//DTD SVG 1.1//EN" "http://www.w3.org/Graphics/SVG/1.1/DTD/svg11.dtd">
<svg version="1.1"
	 id="Layer_1" xmlns:dc="http://purl.org/dc/elements/1.1/" xmlns:cc="http://creativecommons.org/ns#" xmlns:rdf="http://www.w3.org/1999/02/22-rdf-syntax-ns#" xmlns:svg="http://www.w3.org/2000/svg" xmlns:sodipodi="http://sodipodi.sourceforge.net/DTD/sodipodi-0.dtd" xmlns:inkscape="http://www.inkscape.org/namespaces/inkscape" sodipodi:docname="School children.svg" inkscape:version="0.48.2 r9819"
	 xmlns="http://www.w3.org/2000/svg" xmlns:xlink="http://www.w3.org/1999/xlink" x="0px" y="0px" width="190.325px"
	 height="161.208px" viewBox="0 0 190.325 161.208" enable-background="new 0 0 190.325 161.208" xml:space="preserve">
<sodipodi:namedview  showgrid="false" inkscape:cy="146.83256" inkscape:cx="274.82062" inkscape:zoom="0.944" objecttolerance="10" guidetolerance="10" gridtolerance="10" borderopacity="1" bordercolor="#666666" pagecolor="#ffffff" id="namedview90" fit-margin-bottom="0" inkscape:window-maximized="1" fit-margin-right="0" inkscape:window-y="-8" inkscape:window-x="-8" inkscape:window-height="1004" inkscape:window-width="1280" inkscape:current-layer="Layer_1" inkscape:pageshadow="2" inkscape:pageopacity="0" fit-margin-left="0" fit-margin-top="0">
	</sodipodi:namedview>
<path id="path17" inkscape:connector-curvature="0" fill="#FFFFFF" d="M133.375,0c-4.769,0-11.5,4.958-11.5,14.969
	c0,14.133,5.89,14.192,7.375,14.688c0.842,0.282-0.106,2.229-0.438,3c-0.33,0.771-2.739-1.428-5.938-0.656
	c-3.195,0.772-27.478,19.478-28.781,20.781c-0.331,0.331-0.681,1.289-0.531,2.219c1.873,11.708,5.87,21.277,6.53,23.594
	c0.662,2.315,0.273,2.915-1.311,3.688c-1.59,0.771-9.345,2.625-9.345,2.625s-0.639-0.08-1.344-1.845
	c-0.706-1.765-11.45-23.508-12.469-25.688c-1.874-4.013-5.451-3.933-5.562-4.594c-0.163-0.979-0.094-1.75-0.094-1.75
	s6.875-4.803,6.875-12.688c0-5.593-3.99-12.281-12.125-12.281c-8.137,0-12.125,5.83-12.125,11.938
	c0,9.564,4.603,10.789,5.375,11.781c0.772,0.992,0.116,1.812-1.25,1.812c-2.58,0-14.829-0.384-24.25,8.312
	C18.353,72.938,17,93.938,17,93.938s-1.688,1.245-1.688,4c0,3.352,3.035,5.781,6.344,5.781c3.021,0,7.156-2.18,7.156-7.781
	c0-2.868-2.812-5.031-2.812-5.031s2.826-13.624,15.594-19.844c0,0,7.534,38.583-41.594,48.75l0.5,2.25l4.438,19.719
	c0,0,0.504,1.375,1.781,1.375c1.523,0,1.812-1.656,1.812-1.656l2.031-9.938c0,0,18.597-7,21.906-8.469
	c0.636-0.28,1.284-0.643,1.938-1.031c8.142-4.936,17.281-17.906,17.281-17.906s4.435,6.223,9.031,17.906
	c3.491,8.869,7.077,20.885,8.906,35.719c0,0,19.363-5.324,20.906-5.656c1.545-0.332,0.776,4.797,5.562,2.438
	c3.041-1.5,1.218-5.562-1-7.78c0,0-1.322-3.666-0.656-5.22c3.605-8.412,4.848-7.712,17.938-19.47h0.031
	c0.85-0.762,1.768-1.598,2.719-2.469l11.344-10.656c0,0,11.359-0.452,17.47-2.438c1.881-0.611,3.844,0.111,3.844,1.656
	c0,1.191-0.778,6.494,0.625,13.875c1.06,5.577,3.373,12.355,8.22,19.406c1.732,2.523,3.53,10.762,3.53,13.812
	c0,3.052,0.435,6.787,5.22,5.75c4.783-1.036,18.562-5.007,20.812-5.75c2.248-0.741,1.196-2.06-0.125-2.28
	c-1.324-0.221-13.351-2.686-14.562-2.906c-0.701-0.127-4.115-15.274-6.875-28.031c-2.018-9.312-3.688-17.344-3.688-17.344
	l5.438-1.969c-1.324-2.36-12.775-17.399-13.812-37.75c0,0,4.678,11.489,31.844,25.469c1.334,0.685,2.01,0.445,2.781-0.656
	c0.771-1.104,3.344-4.271,3.125-5.469c-0.223-1.198-0.229-0.619-1-1.281c0,0-17.139-7.941-29.906-34.188
	c-2.052-4.217-7.254-13.67-17.375-15.875c-1.882-0.41-1.344-3.25-1.344-3.25s7-3.401,7-12.75C147.688,4.19,138.893,0,133.375,0
	L133.375,0z M121.157,50.906c-0.588,30.154-13.845,49.156-13.845,49.156l5,4.562c-5.449,6.68-9.853,7.065-15.438,12.344
	c-1.391,1.312-2.554,3.109-3.812,5.095c-1.869,2.948-3.971,6.306-7.531,9.03c-2.819,2.158-4.562,3.345-4.562,3.345
	s1.095,2.123,3.438,6.562c3.232,6.127-4.776,8.237-5.219,2.344c-0.491-6.508-1.798-14.112-3.281-21.28
	c-2.672-12.903-5.919-24.478-6.062-26.125c-0.222-2.565,1.763-7.881,0.875-14.22c-0.218-1.553,0.452-1.893,1.562-0.219
	c1.109,1.676,11.031,15.438,11.031,15.438s16.919-3.61,20.094-5c8.911-3.896,9.786-11.846,6.688-18.469
	c-2.343-5.005-1.774-7.999-2.781-15.219L121.157,50.906z"/>
</svg>
