<?xml version="1.0" encoding="UTF-8" standalone="no"?>
<svg
   xmlns:dc="http://purl.org/dc/elements/1.1/"
   xmlns:cc="http://creativecommons.org/ns#"
   xmlns:rdf="http://www.w3.org/1999/02/22-rdf-syntax-ns#"
   xmlns:svg="http://www.w3.org/2000/svg"
   xmlns="http://www.w3.org/2000/svg"
   version="1.1"
   id="svg30725"
   viewBox="0 0 287.48201 97.946007"
   height="27.64254mm"
   width="81.133812mm">
  <defs
     id="defs30727" />
  <metadata
     id="metadata30730">
    <rdf:RDF>
      <cc:Work
         rdf:about="">
        <dc:format>image/svg+xml</dc:format>
        <dc:type
           rdf:resource="http://purl.org/dc/dcmitype/StillImage" />
        <dc:title></dc:title>
      </cc:Work>
    </rdf:RDF>
  </metadata>
  <g
     transform="translate(1286.5981,-37.67491)"
     id="layer1">
    <g
       transform="translate(-1741.8211,-211.93209)"
       id="g30533">
      <g
         id="g14979">
        <g
           id="g14981">
          <rect
             x="567.93298"
             y="319.806"
             width="34.061001"
             height="22.709"
             id="rect14983"
             style="fill:#f47a51" />
          <polygon
             points="579.285,306.018 562.254,295.476 545.224,306.018 545.224,342.515 579.285,342.515 "
             id="polygon14985"
             style="fill:#f47a51" />
          <polygon
             points="545.224,301.152 545.224,306.831 562.254,295.476 579.285,306.831 579.285,301.152 562.254,289.797 "
             id="polygon14987"
             style="fill:#545456" />
          <polygon
             points="579.285,319.806 590.64,308.451 601.994,319.806 "
             id="polygon14989"
             style="fill:#f47a51" />
          <path
             d="m 590.64,325.481 c 3.135,0 5.679,2.543 5.679,5.679 l 0,0 -11.355,0 0,0 c -0.001,-3.135 2.54,-5.679 5.676,-5.679 z"
             id="path14991"
             style="fill:#f47a51" />
          <rect
             x="556.57898"
             y="319.806"
             width="11.354"
             height="22.709"
             id="rect14993"
             style="fill:#545456" />
        </g>
        <g
           id="g14995">
          <rect
             x="601.99402"
             y="319.806"
             width="34.063999"
             height="22.709"
             id="rect14997"
             style="fill:#f47a51" />
          <polygon
             points="624.704,306.018 641.734,295.476 658.765,306.018 658.765,342.515 624.704,342.515 "
             id="polygon14999"
             style="fill:#f47a51" />
          <polygon
             points="658.765,301.152 658.765,306.831 641.734,295.476 624.704,306.831 624.704,301.152 641.734,289.797 "
             id="polygon15001"
             style="fill:#545456" />
          <polygon
             points="624.704,319.806 613.349,308.451 601.994,319.806 "
             id="polygon15003"
             style="fill:#f47a51" />
          <path
             d="m 613.349,325.481 c -3.136,0 -5.678,2.543 -5.678,5.679 l 0,0 11.354,0 0,0 c 0,-3.135 -2.54,-5.679 -5.676,-5.679 z"
             id="path15005"
             style="fill:#f47a51" />
          <rect
             x="636.05798"
             y="319.806"
             width="11.352"
             height="22.709"
             id="rect15007"
             style="fill:#545456" />
        </g>
      </g>
      <g
         id="g15039"
         style="opacity:0.5">
        <polygon
           points="508.277,312.182 481.75,259.128 455.223,312.182 "
           id="polygon15041"
           style="fill:#6acff6" />
        <line
           stroke-miterlimit="10"
           x1="481.75"
           y1="276.81201"
           x2="481.75"
           y2="347.55301"
           id="line15043"
           style="fill:none;stroke:#00a7e2;stroke-width:4.9678998;stroke-miterlimit:10" />
        <polyline
           stroke-miterlimit="10"
           points="472.908,294.497 481.75,303.339     490.593,294.499   "
           id="polyline15045"
           style="fill:none;stroke:#00a7e2;stroke-width:4.9678998;stroke-miterlimit:10" />
        <polyline
           stroke-miterlimit="10"
           points="472.908,285.656 481.75,294.499     490.593,285.656   "
           id="polyline15047"
           style="fill:none;stroke:#00a7e2;stroke-width:4.9678998;stroke-miterlimit:10" />
      </g>
      <g
         id="g15049">
        <path
           d="m 710.329,288.375 c 0,-1.19 -0.966,-2.158 -2.159,-2.158 l -1.08,0 c -1.191,0 -2.159,0.967 -2.159,2.158 l 0,14.031 c 0,1.192 0.968,2.158 2.159,2.158 l 1.08,0 c 1.193,0 2.159,-0.965 2.159,-2.158 l 0,-14.031 z"
           id="path15051"
           style="fill:#545456" />
        <polygon
           points="742.705,309.961 720.852,293.773 699.536,309.961 699.536,342.338 742.705,342.338 "
           id="polygon15053"
           style="fill:#6acff6" />
        <polygon
           points="688.744,320.752 672.555,309.961 656.367,320.752 656.367,342.338 688.744,342.338 "
           id="polygon15055"
           style="fill:#6acff6" />
        <rect
           x="672.55499"
           y="320.75201"
           width="32.375999"
           height="21.584999"
           id="rect15057"
           style="fill:#6acff6" />
        <polygon
           points="699.536,304.564 699.536,309.961 720.852,293.773 742.705,309.961 742.705,304.564 721.119,288.375 "
           id="polygon15059"
           style="fill:#545456" />
        <polygon
           points="656.367,315.357 656.367,320.752 672.555,309.961 688.744,320.752 688.744,315.357 672.555,304.564 "
           id="polygon15061"
           style="fill:#545456" />
        <polygon
           points="699.536,315.357 688.744,320.752 699.536,320.752 "
           id="polygon15063"
           style="fill:#545456" />
        <rect
           x="715.72601"
           y="320.75201"
           width="10.791"
           height="21.584999"
           id="rect15065"
           style="fill:#545456" />
        <path
           d="m 672.555,320.752 c 2.979,0 5.397,2.417 5.397,5.397 l 0,10.791 -10.794,0 0,-10.791 c 0,-2.98 2.417,-5.397 5.397,-5.397 z"
           id="path15067"
           style="fill:#ffffff" />
        <path
           d="m 672.555,320.752 c 2.979,0 5.397,2.417 5.397,5.397 l 0,0 -10.794,0 0,0 c 0,-2.98 2.417,-5.397 5.397,-5.397 z"
           id="path15069"
           style="fill:#545456" />
        <path
           d="m 721.119,309.961 c 2.982,0 5.397,2.416 5.397,5.396 l 0,5.396 -10.791,0 0,-5.396 c 10e-4,-2.981 2.416,-5.396 5.394,-5.396 z"
           id="path15071"
           style="fill:#ffffff" />
      </g>
      <g
         id="g15073">
        <polygon
           points="519.487,315.357 534.904,261.396 550.323,315.357 "
           id="polygon15075"
           style="fill:#00a7e2" />
        <line
           stroke-miterlimit="10"
           x1="534.90399"
           y1="284.521"
           x2="534.90399"
           y2="346.19199"
           id="line15077"
           style="fill:none;stroke:#6acff6;stroke-width:3.24830008;stroke-miterlimit:10" />
      </g>
      <g
         id="g15087">
        <polygon
           points="490.466,321.705 508.831,284.975 527.196,321.705 "
           id="polygon15089"
           style="fill:#6acff6" />
        <line
           stroke-miterlimit="10"
           x1="508.83099"
           y1="303.341"
           x2="508.83099"
           y2="346.19199"
           id="line15091"
           style="fill:none;stroke:#00a7e2;stroke-width:2.57949996;stroke-miterlimit:10" />
      </g>
      <g
         id="g19622">
        <rect
           x="585.74402"
           y="253.263"
           width="43.852001"
           height="88.080002"
           id="rect19624"
           style="fill:#00a7e2" />
        <rect
           x="604.01703"
           y="319.41699"
           width="7.3070002"
           height="21.926001"
           id="rect19626"
           style="fill:#545456" />
        <path
           d="m 596.707,271.194 c -2.017,0 -3.653,1.636 -3.653,3.654 l 0,7.307 7.31,0 0,-7.307 c -10e-4,-2.018 -1.637,-3.654 -3.657,-3.654 z"
           id="path19628"
           style="fill:#ffffff" />
        <path
           d="m 618.633,271.194 c -2.018,0 -3.653,1.636 -3.653,3.654 l 0,7.307 7.309,0 0,-7.307 c 0,-2.018 -1.636,-3.654 -3.656,-3.654 z"
           id="path19630"
           style="fill:#ffffff" />
        <path
           d="m 607.67,271.194 c -2.018,0 -3.654,1.636 -3.654,3.654 l 0,7.307 7.307,0 0,-7.307 c 10e-4,-2.018 -1.635,-3.654 -3.653,-3.654 z"
           id="path19632"
           style="fill:#ffffff" />
        <path
           d="m 596.707,286.528 c -2.017,0 -3.653,1.636 -3.653,3.655 l 0,7.308 7.31,0 0,-7.308 c -10e-4,-2.019 -1.637,-3.655 -3.657,-3.655 z"
           id="path19634"
           style="fill:#ffffff" />
        <path
           d="m 618.633,286.528 c -2.018,0 -3.653,1.636 -3.653,3.655 l 0,7.308 7.309,0 0,-7.308 c 0,-2.019 -1.636,-3.655 -3.656,-3.655 z"
           id="path19636"
           style="fill:#ffffff" />
        <path
           d="m 607.67,286.528 c -2.018,0 -3.654,1.636 -3.654,3.655 l 0,7.308 7.307,0 0,-7.308 c 10e-4,-2.019 -1.635,-3.655 -3.653,-3.655 z"
           id="path19638"
           style="fill:#ffffff" />
        <path
           d="m 596.707,312.107 c -2.017,0 -3.653,1.639 -3.653,3.656 l 0,7.309 7.31,0 0,-7.309 c -10e-4,-2.017 -1.637,-3.656 -3.657,-3.656 z"
           id="path19640"
           style="fill:#ffffff" />
        <path
           d="m 618.633,312.107 c -2.018,0 -3.653,1.639 -3.653,3.656 l 0,7.309 7.309,0 0,-7.309 c 0,-2.017 -1.636,-3.656 -3.656,-3.656 z"
           id="path19642"
           style="fill:#ffffff" />
        <path
           d="m 607.67,312.107 c -2.018,0 -3.654,1.639 -3.654,3.656 l 0,7.309 7.307,0 0,-7.309 c 10e-4,-2.017 -1.635,-3.656 -3.653,-3.656 z"
           id="path19644"
           style="fill:#ffffff" />
        <rect
           x="585.74402"
           y="260.57199"
           width="43.852001"
           height="3.654"
           id="rect19646"
           style="fill:#6acff6" />
        <rect
           x="585.74402"
           y="304.797"
           width="43.852001"
           height="3.6559999"
           id="rect19648"
           style="fill:#6acff6" />
        <path
           d="m 633.252,255.456 c 0,0.808 -0.655,1.46 -1.465,1.46 l -48.237,0 c -0.805,0 -1.459,-0.653 -1.459,-1.46 l 0,-4.384 c 0,-0.808 0.654,-1.465 1.459,-1.465 l 48.237,0 c 0.81,0 1.465,0.657 1.465,1.465 l 0,4.384 z"
           id="path19650"
           style="fill:#6acff6" />
      </g>
    </g>
  </g>
</svg>
