<?xml version="1.0" encoding="UTF-8" standalone="no"?>
<svg
   xmlns:dc="http://purl.org/dc/elements/1.1/"
   xmlns:cc="http://creativecommons.org/ns#"
   xmlns:rdf="http://www.w3.org/1999/02/22-rdf-syntax-ns#"
   xmlns:svg="http://www.w3.org/2000/svg"
   xmlns="http://www.w3.org/2000/svg"
   version="1.1"
   id="svg31486"
   viewBox="0 0 185.14897 115.04701"
   height="32.468822mm"
   width="52.253155mm">
  <defs
     id="defs31488" />
  <metadata
     id="metadata31491">
    <rdf:RDF>
      <cc:Work
         rdf:about="">
        <dc:format>image/svg+xml</dc:format>
        <dc:type
           rdf:resource="http://purl.org/dc/dcmitype/StillImage" />
        <dc:title></dc:title>
      </cc:Work>
    </rdf:RDF>
  </metadata>
  <g
     transform="translate(174.71734,-474.8387)"
     id="layer1">
    <g
       transform="translate(-901.44537,242.3327)"
       id="g30588">
      <g
         id="g14907">
        <rect
           x="726.72803"
           y="248.875"
           width="51.012001"
           height="92.757004"
           id="rect14909"
           style="fill:#f47a51" />
        <rect
           x="731.82898"
           y="254.33299"
           width="10.203"
           height="16.368"
           id="rect14911"
           style="fill:#ffffff" />
        <rect
           x="747.133"
           y="254.33299"
           width="10.201"
           height="16.368"
           id="rect14913"
           style="fill:#ffffff" />
        <rect
           x="762.43597"
           y="254.33299"
           width="10.202"
           height="16.368"
           id="rect14915"
           style="fill:#ffffff" />
        <rect
           x="731.82898"
           y="276.15701"
           width="10.203"
           height="16.368999"
           id="rect14917"
           style="fill:#ffffff" />
        <rect
           x="747.133"
           y="276.15701"
           width="10.201"
           height="16.368999"
           id="rect14919"
           style="fill:#ffffff" />
        <rect
           x="762.43597"
           y="276.15701"
           width="10.202"
           height="16.368999"
           id="rect14921"
           style="fill:#ffffff" />
        <rect
           x="731.82898"
           y="297.98199"
           width="10.203"
           height="16.368999"
           id="rect14923"
           style="fill:#ffffff" />
        <rect
           x="747.133"
           y="297.98199"
           width="10.201"
           height="16.368999"
           id="rect14925"
           style="fill:#ffffff" />
        <rect
           x="762.43597"
           y="297.98199"
           width="10.202"
           height="16.368999"
           id="rect14927"
           style="fill:#ffffff" />
        <rect
           x="731.82898"
           y="319.80801"
           width="10.203"
           height="16.367001"
           id="rect14929"
           style="fill:#ffffff" />
        <rect
           x="762.43597"
           y="319.80801"
           width="10.202"
           height="16.367001"
           id="rect14931"
           style="fill:#ffffff" />
        <rect
           x="747.133"
           y="319.80801"
           width="10.201"
           height="21.823999"
           id="rect14933"
           style="fill:#545456" />
        <rect
           x="726.72803"
           y="243.41901"
           width="51.012001"
           height="5.4559999"
           id="rect14935"
           style="fill:#545456" />
        <rect
           x="731.82898"
           y="232.506"
           width="40.808998"
           height="5.4569998"
           id="rect14937"
           style="fill:#545456" />
        <line
           stroke-miterlimit="10"
           x1="736.92999"
           y1="237.963"
           x2="736.92999"
           y2="243.41901"
           id="line14939"
           style="fill:none;stroke:#545456;stroke-width:2.96399999;stroke-miterlimit:10" />
        <line
           stroke-miterlimit="10"
           x1="767.53601"
           y1="237.963"
           x2="767.53601"
           y2="243.41901"
           id="line14941"
           style="fill:none;stroke:#545456;stroke-width:2.96399999;stroke-miterlimit:10" />
      </g>
      <g
         id="g14943">
        <rect
           x="786.789"
           y="248.875"
           width="51.011002"
           height="92.757004"
           id="rect14945"
           style="fill:#f47a51" />
        <rect
           x="791.89099"
           y="254.33299"
           width="10.202"
           height="16.368"
           id="rect14947"
           style="fill:#ffffff" />
        <rect
           x="807.19397"
           y="254.33299"
           width="10.201"
           height="16.368"
           id="rect14949"
           style="fill:#ffffff" />
        <rect
           x="822.49701"
           y="254.33299"
           width="10.202"
           height="16.368"
           id="rect14951"
           style="fill:#ffffff" />
        <rect
           x="791.89099"
           y="276.15701"
           width="10.202"
           height="16.368999"
           id="rect14953"
           style="fill:#ffffff" />
        <rect
           x="807.19397"
           y="276.15701"
           width="10.201"
           height="16.368999"
           id="rect14955"
           style="fill:#ffffff" />
        <rect
           x="822.49701"
           y="276.15701"
           width="10.202"
           height="16.368999"
           id="rect14957"
           style="fill:#ffffff" />
        <rect
           x="791.89099"
           y="297.98199"
           width="10.202"
           height="16.368999"
           id="rect14959"
           style="fill:#ffffff" />
        <rect
           x="807.19397"
           y="297.98199"
           width="10.201"
           height="16.368999"
           id="rect14961"
           style="fill:#ffffff" />
        <rect
           x="822.49701"
           y="297.98199"
           width="10.202"
           height="16.368999"
           id="rect14963"
           style="fill:#ffffff" />
        <rect
           x="791.89099"
           y="319.80801"
           width="10.202"
           height="16.367001"
           id="rect14965"
           style="fill:#ffffff" />
        <rect
           x="822.49701"
           y="319.80801"
           width="10.202"
           height="16.367001"
           id="rect14967"
           style="fill:#ffffff" />
        <rect
           x="807.19397"
           y="319.80801"
           width="10.201"
           height="21.823999"
           id="rect14969"
           style="fill:#545456" />
        <rect
           x="786.789"
           y="243.41901"
           width="51.011002"
           height="5.4559999"
           id="rect14971"
           style="fill:#545456" />
        <rect
           x="791.89099"
           y="232.506"
           width="40.807999"
           height="5.4569998"
           id="rect14973"
           style="fill:#545456" />
        <line
           stroke-miterlimit="10"
           x1="796.992"
           y1="237.963"
           x2="796.992"
           y2="243.41901"
           id="line14975"
           style="fill:none;stroke:#545456;stroke-width:2.96399999;stroke-miterlimit:10" />
        <line
           stroke-miterlimit="10"
           x1="827.59802"
           y1="237.963"
           x2="827.59802"
           y2="243.41901"
           id="line14977"
           style="fill:none;stroke:#545456;stroke-width:2.96399999;stroke-miterlimit:10" />
      </g>
      <g
         id="g15009"
         style="opacity:0.8">
        <g
           id="g15011">
          <rect
             x="793.53802"
             y="321.23901"
             width="34.060001"
             height="22.709"
             id="rect15013"
             style="fill:#f47a51" />
          <polygon
             points="804.889,307.451 787.858,296.909 770.829,307.451 770.829,343.948 804.889,343.948 "
             id="polygon15015"
             style="fill:#f47a51" />
          <polygon
             points="770.829,302.585 770.829,308.264 787.858,296.909 804.889,308.264 804.889,302.585 787.858,291.23 "
             id="polygon15017"
             style="fill:#f47a51" />
          <polygon
             points="804.889,321.239 816.244,309.884 827.598,321.239 "
             id="polygon15019"
             style="fill:#f47a51" />
          <path
             d="m 816.244,326.915 c 3.135,0 5.678,2.543 5.678,5.679 l 0,0 -11.354,0 0,0 c -10e-4,-3.136 2.539,-5.679 5.676,-5.679 z"
             id="path15021"
             style="fill:#f47a51" />
          <rect
             x="782.18298"
             y="321.23901"
             width="11.355"
             height="22.709"
             id="rect15023"
             style="fill:#f47a51" />
        </g>
        <g
           id="g15025">
          <rect
             x="827.59802"
             y="321.23901"
             width="34.063999"
             height="22.709"
             id="rect15027"
             style="fill:#f47a51" />
          <polygon
             points="850.308,307.451 867.339,296.909 884.368,307.451 884.368,343.948 850.308,343.948 "
             id="polygon15029"
             style="fill:#f47a51" />
          <polygon
             points="884.368,302.585 884.368,308.264 867.339,296.909 850.308,308.264 850.308,302.585 867.339,291.23 "
             id="polygon15031"
             style="fill:#f47a51" />
          <polygon
             points="850.308,321.239 838.953,309.884 827.598,321.239 "
             id="polygon15033"
             style="fill:#f47a51" />
          <path
             d="m 838.953,326.915 c -3.136,0 -5.678,2.543 -5.678,5.679 l 0,0 11.354,0 0,0 c 10e-4,-3.136 -2.541,-5.679 -5.676,-5.679 z"
             id="path15035"
             style="fill:#f47a51" />
          <rect
             x="861.66302"
             y="321.23901"
             width="11.351"
             height="22.709"
             id="rect15037"
             style="fill:#f47a51" />
        </g>
      </g>
      <g
         id="g15079">
        <circle
           cx="840.24799"
           cy="308.035"
           r="15.883"
           id="circle15081"
           style="fill:#6acff6" />
        <line
           stroke-miterlimit="10"
           x1="840.24799"
           y1="308.035"
           x2="840.24799"
           y2="345.09299"
           id="line15083"
           style="fill:none;stroke:#00a7e2;stroke-width:2.23079991;stroke-miterlimit:10" />
        <line
           stroke-miterlimit="10"
           x1="840.24799"
           y1="318.62299"
           x2="850.836"
           y2="308.035"
           id="line15085"
           style="fill:none;stroke:#00a7e2;stroke-width:2.23079991;stroke-miterlimit:10" />
      </g>
      <g
         id="g15093"
         style="opacity:0.5">
        <polygon
           points="892.959,312.182 866.432,259.128 839.905,312.182 "
           id="polygon15095"
           style="fill:#6acff6" />
        <line
           stroke-miterlimit="10"
           x1="866.43201"
           y1="276.81201"
           x2="866.43201"
           y2="347.55301"
           id="line15097"
           style="fill:none;stroke:#00a7e2;stroke-width:4.9678998;stroke-miterlimit:10" />
        <polyline
           stroke-miterlimit="10"
           points="857.59,294.497 866.432,303.339     875.274,294.499   "
           id="polyline15099"
           style="fill:none;stroke:#00a7e2;stroke-width:4.9678998;stroke-miterlimit:10" />
        <polyline
           stroke-miterlimit="10"
           points="857.59,285.656 866.432,294.499     875.274,285.656   "
           id="polyline15101"
           style="fill:none;stroke:#00a7e2;stroke-width:4.9678998;stroke-miterlimit:10" />
      </g>
      <g
         id="g15103">
        <polygon
           points="875.147,321.705 893.512,284.975 911.877,321.705 "
           id="polygon15105"
           style="fill:#6acff6" />
        <line
           stroke-miterlimit="10"
           x1="893.51202"
           y1="303.341"
           x2="893.51202"
           y2="346.19199"
           id="line15107"
           style="fill:none;stroke:#00a7e2;stroke-width:2.57949996;stroke-miterlimit:10" />
      </g>
      <g
         id="bus">
        <path
           d="m 746.249,340.752 c 0,1.229 0.998,2.224 2.227,2.224 l 77.081,0 c 1.228,0 2.223,-0.995 2.223,-2.224 l 0,-28.906 c 0,-1.228 -0.995,-2.223 -2.223,-2.223 l -77.081,0 c -1.229,0 -2.227,0.995 -2.227,2.223 l 0,28.906 z"
           id="path19604"
           style="fill:#6acff6" />
        <rect
           x="746.24902"
           y="335.564"
           width="81.530998"
           height="3.7049999"
           id="rect19606"
           style="fill:#ffffff" />
        <path
           d="m 768.485,325.928 c 0,1.229 0.998,2.224 2.225,2.224 l 51.14,0 c 1.228,0 2.227,-0.995 2.227,-2.224 l 0,-10.377 c 0,-1.229 -0.999,-2.224 -2.227,-2.224 l -51.14,0 c -1.227,0 -2.225,0.996 -2.225,2.224 l 0,10.377 z"
           id="path19608"
           style="fill:#ffffff" />
        <path
           d="m 746.249,313.327 8.897,0 c 1.229,0 2.221,0.996 2.221,2.224 l 0,12.601 c 0,1.229 -0.992,2.224 -2.221,2.224 l -8.897,0 0,-17.049 z"
           id="path19610"
           style="fill:#00a7e2" />
        <circle
           cx="811.10602"
           cy="341.12299"
           r="5.559"
           id="circle19612"
           style="fill:#545456" />
        <circle
           cx="762.92603"
           cy="341.12299"
           r="5.559"
           id="circle19614"
           style="fill:#545456" />
        <rect
           x="794.427"
           y="313.327"
           width="3.7079999"
           height="18.530001"
           id="rect19616"
           style="fill:#00a7e2" />
        <rect
           x="809.25299"
           y="313.327"
           width="3.7030001"
           height="18.530001"
           id="rect19618"
           style="fill:#00a7e2" />
        <rect
           x="779.60498"
           y="313.327"
           width="3.707"
           height="18.530001"
           id="rect19620"
           style="fill:#00a7e2" />
      </g>
    </g>
  </g>
</svg>
