<?xml version="1.0" encoding="utf-8"?>
<!-- Generator: Adobe Illustrator 16.2.1, SVG Export Plug-In . SVG Version: 6.00 Build 0)  -->
<!DOCTYPE svg PUBLIC "-//W3C//DTD SVG 1.1//EN" "http://www.w3.org/Graphics/SVG/1.1/DTD/svg11.dtd">
<svg version="1.1" id="Layer_1" xmlns="http://www.w3.org/2000/svg" xmlns:xlink="http://www.w3.org/1999/xlink" x="0px" y="0px"
	 width="18px" height="18px" viewBox="0 0 18 18" enable-background="new 0 0 18 18" xml:space="preserve">
<path fill="#FF6600" d="M16.028,16.562c0.004,0.678-0.608,1.229-1.368,1.231L3.668,17.837c-0.76,0.004-1.377-0.542-1.382-1.22
	l-0.07-13.89C2.212,2.05,2.824,1.5,3.583,1.497l10.993-0.043c0.759-0.003,1.378,0.543,1.38,1.22L16.028,16.562z"/>
<polygon fill="#FFFFFF" points="3.831,3.103 14.345,3.061 14.412,16.188 3.9,16.229 "/>
<path fill="#FF6600" d="M13.393,2.992c0.001,0.34-0.303,0.617-0.686,0.618L5.474,3.638C5.093,3.64,4.782,3.366,4.781,3.027
	L4.775,1.631c-0.002-0.34,0.304-0.616,0.686-0.618l7.234-0.029c0.379-0.002,0.688,0.273,0.691,0.611L13.393,2.992z"/>
<path fill="#FF6600" d="M11.338,1.408c0.002,0.36-0.23,0.654-0.519,0.655L7.778,2.077c-0.289,0.002-0.524-0.29-0.526-0.65L7.25,0.69
	c-0.002-0.361,0.23-0.655,0.518-0.655l3.042-0.014c0.288-0.001,0.522,0.29,0.524,0.652L11.338,1.408z"/>
<path fill="#FFFFFF" d="M9.805,1.217C9.806,1.5,9.579,1.729,9.296,1.73c-0.282,0-0.512-0.227-0.512-0.508
	C8.781,0.939,9.009,0.71,9.292,0.708C9.574,0.708,9.804,0.935,9.805,1.217"/>
<g opacity="0.2">
	<g>
		<defs>
			<polygon id="SVGID_1_" points="7.716,20.732 21.503,11.558 14.422,3.099 0.638,12.273 			"/>
		</defs>
		<clipPath id="SVGID_2_">
			<use xlink:href="#SVGID_1_"  overflow="visible"/>
		</clipPath>
		<polygon clip-path="url(#SVGID_2_)" fill="#333333" points="14.422,3.099 3.978,16.265 14.491,16.224 		"/>
	</g>
</g>
</svg>
