<?xml version="1.0" encoding="utf-8"?>
<!-- Generator: Adobe Illustrator 16.2.1, SVG Export Plug-In . SVG Version: 6.00 Build 0)  -->
<!DOCTYPE svg PUBLIC "-//W3C//DTD SVG 1.1//EN" "http://www.w3.org/Graphics/SVG/1.1/DTD/svg11.dtd">
<svg version="1.1"
	 id="svg5294" xmlns:dc="http://purl.org/dc/elements/1.1/" xmlns:cc="http://creativecommons.org/ns#" xmlns:rdf="http://www.w3.org/1999/02/22-rdf-syntax-ns#" xmlns:svg="http://www.w3.org/2000/svg" xmlns:sodipodi="http://sodipodi.sourceforge.net/DTD/sodipodi-0.dtd" xmlns:inkscape="http://www.inkscape.org/namespaces/inkscape" sodipodi:version="0.32" inkscape:version="0.46" sodipodi:docname="pictograms-nps-accessibility-wheelchair-accessible.svg" inkscape:output_extension="org.inkscape.output.svg.inkscape"
	 xmlns="http://www.w3.org/2000/svg" xmlns:xlink="http://www.w3.org/1999/xlink" x="0px" y="0px" width="256px" height="256px"
	 viewBox="0 0 256 256" enable-background="new 0 0 256 256" xml:space="preserve">
<defs>
	
	
		<inkscape:perspective  sodipodi:type="inkscape:persp3d" inkscape:vp_x="0 : 526.18109 : 1" inkscape:vp_y="0 : 1000 : 0" inkscape:vp_z="744.09448 : 526.18109 : 1" id="perspective5302" inkscape:persp3d-origin="372.04724 : 350.78739 : 1">
		</inkscape:perspective>
</defs>
<sodipodi:namedview  pagecolor="#ffffff" bordercolor="#666666" borderopacity="1.0" gridtolerance="10000" guidetolerance="10" objecttolerance="10" inkscape:zoom="1.4" inkscape:cx="124.57192" inkscape:cy="95.799496" showgrid="false" id="base" inkscape:pageopacity="0.0" inkscape:pageshadow="2" inkscape:document-units="px" inkscape:current-layer="layer1" inkscape:window-width="747" inkscape:window-height="674" inkscape:window-x="0" inkscape:window-y="309">
	</sodipodi:namedview>
<g id="g3250" transform="matrix(25.882115,0,0,-25.882115,107.58139,62.290797)">
	<path id="path3252" fill="#292929" d="M-0.227,0.59c0.456,0,0.822,0.371,0.822,0.822c0,0.456-0.366,0.822-0.822,0.822
		c-0.453,0-0.822-0.366-0.822-0.822C-1.049,0.961-0.68,0.59-0.227,0.59"/>
</g>
<g id="g3254" transform="matrix(25.882115,0,0,-25.882115,190.94002,189.82958)">
	<path id="path3256" fill="#292929" d="M0.552-0.601c0.13-0.214,0.432-0.301,0.659-0.165c0.226,0.137,0.294,0.42,0.165,0.657
		l-1.402,2.421c-0.087,0.145-0.24,0.227-0.397,0.232h-2.056l-0.02,0.621h1.494c0.204,0.012,0.371,0.168,0.371,0.376
		c0,0.206-0.163,0.366-0.371,0.374h-1.537L-2.596,4.62c-0.03,0.432-0.4,0.771-0.837,0.747c-0.44-0.025-0.771-0.404-0.75-0.839
		l0.144-2.496c0.036-0.436,0.402-0.749,0.837-0.746h2.665L0.552-0.601z"/>
</g>
<g id="g3258" transform="matrix(25.882115,0,0,-25.882115,118.60179,209.39418)">
	<path id="path3260" fill="#292929" d="M-0.124-0.784c-1.348,0-2.442,1.091-2.442,2.442c0,0.74,0.335,1.399,0.857,1.848L-1.754,4.27
		c-0.873-0.545-1.459-1.506-1.459-2.611c0-1.705,1.382-3.089,3.089-3.089c1.257,0,2.331,0.756,2.814,1.833L2.255,1.154
		C2.023,0.051,1.05-0.784-0.124-0.784"/>
</g>
</svg>
