<?xml version="1.0" encoding="utf-8"?>
<!-- Generator: Adobe Illustrator 15.1.0, SVG Export Plug-In . SVG Version: 6.00 Build 0)  -->
<svg version="1.2" baseProfile="tiny" id="Layer_1" xmlns="http://www.w3.org/2000/svg" xmlns:xlink="http://www.w3.org/1999/xlink"
	 x="0px" y="0px" width="29.817px" height="29.46px" viewBox="0 0 29.817 29.46" overflow="inherit" xml:space="preserve">
<path fill="#FFFFFF" d="M25.119,23.731L24.9,23.912c-0.279,0.234-0.535,0.438-0.799,0.611c-1.877,1.334-4.102,2.164-6.416,2.396
	c-0.16,0.016-0.324,0.03-0.498,0.038c-0.248,0.015-0.496,0.022-0.768,0.022c0,0-0.498-0.008-0.711-0.015
	c-1.988-0.069-4.1-0.468-5.526-1.063l-0.398-0.165l-0.348,0.255c-1.197,0.897-1.906,1.351-3.488,2.104
	C4.033,29,2.111,29.46,0.256,29.46H0c4.705-2.314,4.072-6.392,3.045-13.04l-0.143-0.929C2.111,10.29,4.387,5.134,8.73,2.328
	c0.075-0.053,0.151-0.097,0.264-0.157c1.785-1.177,3.791-1.876,5.955-2.096C15.408,0.023,15.877,0,16.336,0
	c5.715,0,10.631,3.537,12.582,8.64c0.09,0.219,0.166,0.443,0.242,0.671c0.082,0.248,0.15,0.497,0.217,0.754
	c0.174,0.67,0.303,1.357,0.369,2.065C30.199,16.525,28.473,20.844,25.119,23.731"/>
</svg>
