<?xml version="1.0" encoding="utf-8"?>
<!-- Generator: Adobe Illustrator 16.2.1, SVG Export Plug-In . SVG Version: 6.00 Build 0)  -->
<!DOCTYPE svg PUBLIC "-//W3C//DTD SVG 1.1//EN" "http://www.w3.org/Graphics/SVG/1.1/DTD/svg11.dtd">
<svg version="1.1" id="Layer_1" xmlns="http://www.w3.org/2000/svg" xmlns:xlink="http://www.w3.org/1999/xlink" x="0px" y="0px"
	 width="176.69px" height="228.006px" viewBox="0 0 176.69 228.006" enable-background="new 0 0 176.69 228.006"
	 xml:space="preserve">
<path id="path52" opacity="0.5" d="M176.684,91.012c0.173,11.867-3.174,23.493-9.092,32.818c0,0-25.285,28.607-31.815,43.819
	c-6.491,15.241-15.9,60.356-15.9,60.356s-10.736-44.943-17.695-59.982c-6.955-15.013-33.078-43.008-33.078-43.008
	c-3.232-4.819-5.799-10.191-7.507-15.963c0.319,0.028,0.639,0.028,0.956,0.028c2.046,0,3.979-0.083,5.742-0.258
	c9.872-1.009,19.31-4.532,27.251-10.162c0.98-0.665,1.988-1.414,3.028-2.278l0.694-0.55c14.69-12.298,22.311-30.974,20.379-49.998
	c-0.463-4.587-1.447-9.001-2.915-13.188h0.37C149.521,32.184,176.188,58.592,176.684,91.012"/>
<path id="path54" fill="#FFFFFF" d="M96.179,90.866l-0.839,0.691c-1.067,0.896-2.049,1.675-3.059,2.342
	c-7.187,5.108-15.702,8.284-24.565,9.178c-0.608,0.057-1.238,0.115-1.905,0.143c-0.949,0.059-1.904,0.088-2.944,0.088h-0.314
	c-0.781,0-1.592-0.03-2.4-0.057c-7.619-0.264-15.699-1.789-21.156-4.07l-1.526-0.634l-1.331,0.979
	c-4.586,3.436-7.298,5.169-13.36,8.054c-7.336,3.459-14.695,5.223-21.798,5.223H0c18.015-8.863,15.589-24.475,11.66-49.935
	l-0.547-3.549C8.082,39.402,16.799,19.656,33.427,8.916c0.287-0.2,0.576-0.369,1.011-0.603c6.837-4.505,14.518-7.188,22.798-8.023
	C59,0.087,60.789,0,62.552,0c21.876,0,40.698,13.542,48.171,33.079c0.35,0.84,0.638,1.702,0.929,2.571
	c0.314,0.95,0.573,1.901,0.836,2.888c0.661,2.564,1.151,5.193,1.411,7.905C115.63,63.274,109.024,79.812,96.179,90.866"/>
</svg>
