<?xml version="1.0" encoding="utf-8"?>
<!-- Generator: Adobe Illustrator 16.2.1, SVG Export Plug-In . SVG Version: 6.00 Build 0)  -->
<!DOCTYPE svg PUBLIC "-//W3C//DTD SVG 1.1//EN" "http://www.w3.org/Graphics/SVG/1.1/DTD/svg11.dtd">
<svg version="1.1" id="Layer_1" xmlns="http://www.w3.org/2000/svg" xmlns:xlink="http://www.w3.org/1999/xlink" x="0px" y="0px"
	 width="228.711px" height="195.728px" viewBox="0 0 228.711 195.728" enable-background="new 0 0 228.711 195.728"
	 xml:space="preserve">
<g>
	<path fill="#FF6600" d="M71.867,134.936c-2.862,3.878-8.331,4.698-12.205,1.832L3.541,95.267
		c-3.876-2.866-4.696-8.327-1.832-12.202L60.493,3.54c2.866-3.878,8.328-4.696,12.203-1.827l56.126,41.498
		c3.87,2.865,4.69,8.328,1.827,12.203L71.867,134.936z"/>
	<polygon fill="#FFFFFF" points="67.116,11.822 120.789,51.506 65.239,126.658 11.572,86.97 	"/>
	<g opacity="0.2">
		<g>
			<defs>
				<rect id="SVGID_1_" x="11.813" y="52.015" width="109.218" height="75.149"/>
			</defs>
			<clipPath id="SVGID_2_">
				<use xlink:href="#SVGID_1_"  overflow="visible"/>
			</clipPath>
			<polygon clip-path="url(#SVGID_2_)" fill="#3991FC" points="121.031,52.015 11.813,87.479 65.483,127.164 			"/>
		</g>
	</g>
	<path fill="#FF6600" d="M116.246,47.499c-1.438,1.945-4.176,2.356-6.119,0.92l-36.93-27.31c-1.947-1.437-2.357-4.173-0.918-6.118
		l5.906-7.987c1.436-1.942,4.173-2.354,6.116-0.918l36.934,27.308c1.94,1.434,2.353,4.177,0.917,6.114L116.246,47.499z"/>
	<path fill="#FF6600" d="M112.695,30.776c-1.525,2.064-4.104,2.749-5.756,1.527L89.538,19.438c-1.654-1.223-1.757-3.889-0.23-5.954
		l3.113-4.209c1.531-2.067,4.107-2.755,5.758-1.533l17.402,12.868c1.65,1.22,1.753,3.886,0.224,5.956L112.695,30.776z"/>
	<path fill="#FFFFFF" d="M104.761,23.159c-1.193,1.618-3.471,1.959-5.085,0.766c-1.614-1.197-1.958-3.473-0.761-5.087
		c1.193-1.615,3.469-1.959,5.081-0.766C105.614,19.267,105.954,21.544,104.761,23.159"/>
</g>
<g>
	<polygon fill="#FF6600" points="212.643,62.077 153.306,51.899 160.123,12.356 219.463,22.532 	"/>
	<polyline fill="#FF9900" points="153.306,51.899 160.121,12.356 219.463,22.533 	"/>
	
		<line opacity="0.2" fill="#FFFFFF" stroke="#000000" stroke-width="4" stroke-miterlimit="10" x1="160.123" y1="12.356" x2="144.756" y2="101.451"/>
</g>
<g>
	<path fill="#FF6600" d="M27.325,153.58c0.004,3.537-2.9,6.405-6.485,6.413l-0.835,0.004c-3.589,0.003-6.497-2.865-6.497-6.411
		l-0.021-18.274c-0.002-3.54,2.902-6.415,6.483-6.413l0.841-0.002c3.589-0.006,6.493,2.865,6.5,6.404L27.325,153.58z"/>
	<path fill="#FF9900" d="M179.833,190.064c0.002-0.033-0.01-0.061-0.006-0.09l-0.102-100.278
		c-20.091,5.615-136.598,38.491-147.057,41.546c-4.041,1.184-5.487,1.817-5.478,8.855c0,1.378,0,0,0.014,15.276
		c0.004,2.923,4.735,2.995,4.731,0.109c-0.002-1.356,0.441-2.5,2.945-1.882c0.59,0.151,7.941,2.37,21.252,5.674l0.013,8.116
		c0,5.627,4.57,10.185,10.194,10.178l15.202-0.016c5.363,0,9.749-4.166,10.134-9.434
		C124.476,176.276,162.255,185.675,179.833,190.064 M86.631,167.37c0.004,2.812-2.271,5.096-5.085,5.1l-15.22,0.011
		c-2.819,0.004-5.101-2.27-5.101-5.087l-0.012-6.858c7.578,1.884,16.244,4.044,25.417,6.327V167.37z"/>
	<path fill="#FF6600" d="M191.631,188.082c0.002,3.479-2.846,6.291-6.367,6.295l-0.813,0.004c-3.517,0-6.371-2.812-6.379-6.283
		l-0.095-99.227c-0.004-3.469,2.844-6.29,6.363-6.295l0.809,0.002c3.523-0.004,6.375,2.812,6.375,6.278L191.631,188.082z"/>
	<path fill="#FFFFFF" d="M39.306,141c-1.116,0-2.143-0.74-2.454-1.871c-0.369-1.358,0.428-2.76,1.775-3.129l128.366-35.413
		c1.35-0.38,2.759,0.415,3.121,1.778c0.381,1.352-0.419,2.753-1.775,3.133L39.984,140.904C39.76,140.97,39.532,141.002,39.306,141"
		/>
</g>
</svg>
