<?xml version="1.0" encoding="utf-8"?>
<!-- Generator: Adobe Illustrator 16.2.1, SVG Export Plug-In . SVG Version: 6.00 Build 0)  -->
<!DOCTYPE svg PUBLIC "-//W3C//DTD SVG 1.1//EN" "http://www.w3.org/Graphics/SVG/1.1/DTD/svg11.dtd">
<svg version="1.1" id="Layer_1" xmlns="http://www.w3.org/2000/svg" xmlns:xlink="http://www.w3.org/1999/xlink" x="0px" y="0px"
	 width="30px" height="30px" viewBox="0 0 30 30" enable-background="new 0 0 30 30" xml:space="preserve">
<path d="M14.527,20.404c1.336,0.609,2.964,0.412,4.122-0.635c1.555-1.404,1.676-3.802,0.273-5.357
	c-1.407-1.557-3.805-1.678-5.36-0.273c-1.158,1.046-1.52,2.646-1.05,4.037l-6.849,3.929c-1.334-0.61-2.961-0.412-4.12,0.634
	c-1.556,1.404-1.677,3.802-0.273,5.359c1.405,1.556,3.803,1.678,5.359,0.273c1.142-1.035,1.507-2.597,1.067-3.974L14.527,20.404z
	 M14.638,15.33c0.896-0.81,2.281-0.739,3.093,0.159c0.811,0.897,0.74,2.279-0.158,3.089c-0.896,0.812-2.279,0.739-3.089-0.155
	C13.673,17.524,13.741,16.139,14.638,15.33z M2.463,27.021c-0.811-0.895-0.741-2.281,0.157-3.091S4.9,23.19,5.71,24.088
	c0.81,0.895,0.741,2.279-0.156,3.092C4.656,27.987,3.273,27.919,2.463,27.021z"/>
<line fill="none" stroke="#000000" stroke-width="3.0868" stroke-miterlimit="10" x1="18.341" y1="14.756" x2="24.172" y2="6.954"/>
<g>
	<path d="M26.229,2.533c1.179,0,2.139,0.959,2.139,2.138c0,1.179-0.96,2.138-2.139,2.138s-2.139-0.959-2.139-2.138
		C24.091,3.492,25.051,2.533,26.229,2.533 M26.229,0.99c-2.034,0-3.682,1.648-3.682,3.682s1.647,3.681,3.682,3.681
		s3.682-1.648,3.682-3.681S28.264,0.99,26.229,0.99L26.229,0.99z"/>
</g>
</svg>
